<svg xmlns="http://www.w3.org/2000/svg" width="50" height="50" viewBox="0 0 50 50"><g transform="translate(-85.5 -600.5)"><rect width="50" height="50" rx="10" transform="translate(85.5 600.5)"/><g transform="translate(53.659 611.5)"><path d="M53.149,138.129c-3.9-.022-7.127-7.985-7.127-12.04,0-6.624,4.969-8.074,6.884-8.074a7.921,7.921,0,0,1,2.6.639,5.806,5.806,0,0,0,1.483.425,4.615,4.615,0,0,0,1.064-.345,8.528,8.528,0,0,1,3.207-.775h.007a6.573,6.573,0,0,1,5.5,2.778l.4.6-.577.436a4.858,4.858,0,0,0-2.33,4.006,4.522,4.522,0,0,0,2.523,4.18c.361.217.736.442.736.932,0,.32-2.555,7.2-6.266,7.2a5.04,5.04,0,0,1-2.116-.514,4.291,4.291,0,0,0-1.884-.454,4.844,4.844,0,0,0-1.491.4,7.306,7.306,0,0,1-2.587.6Z" transform="translate(0 -111.92)" fill="#fff"/><path d="M260.078,0c.1,3.485-2.4,5.9-4.885,5.751C254.783,2.97,257.682,0,260.078,0Z" transform="translate(-198.427)" fill="#fff"/></g></g></svg>