<svg xmlns="http://www.w3.org/2000/svg" width="101.934" height="44.371" viewBox="0 0 101.934 44.371"><g transform="translate(-1003 231)"><path d="M-132.272-682.125l-1.054,6.05-1.288-6.05h-12.724c-3.069-2.024-7.284-2.04-9.411-2.04-4.484,0-10.787.019-13.156,5.933-2.527-2.461-6.353-2.789-10.425-2.789h-.182c-3.427,0-9.082.01-11.635,4.641-1.7-6-5.833-8.327-13.622-8.327-12.225,0-14.617,6.179-14.617,16.852,0,10.374,2.445,16.8,14.617,16.8a25.908,25.908,0,0,0,6.65-.7,5.321,5.321,0,0,0-1.35,2.393h-4.943v8.821h8.968v-.175a12,12,0,0,0,2.734.277,8.7,8.7,0,0,0,4.6-.851,4.924,4.924,0,0,0,.692-.49,11.51,11.51,0,0,0,3.359.427,14.972,14.972,0,0,0,2.113-.136v.746h14.768v.406h8.968v-.274h3.058a8.55,8.55,0,0,0,1.123.071,6.681,6.681,0,0,0,4.418-1.379,8.283,8.283,0,0,0,2.632.4,8.994,8.994,0,0,0,1.131-.07h4.337v.629l3.067.173c.254.015.5.034.752.053.6.048,1.2.091,1.814.091,8.5,0,11.075-4.516,12.309-11.239l6.117-30.252Z" transform="translate(1223.386 453.707)" fill="#176eff"/><path d="M-204.422-498.986a25.912,25.912,0,0,0,6.65-.7,5.324,5.324,0,0,0-1.35,2.393h-4.943v8.821h8.967v-.175a12.014,12.014,0,0,0,2.734.277,8.7,8.7,0,0,0,4.6-.851,4.925,4.925,0,0,0,.692-.49,11.519,11.519,0,0,0,3.359.427,14.991,14.991,0,0,0,2.113-.136v.746h14.768v.406h8.968v-.274h3.057a8.587,8.587,0,0,0,1.123.071,6.676,6.676,0,0,0,4.418-1.379,8.3,8.3,0,0,0,2.634.4,8.9,8.9,0,0,0,1.129-.07h4.337v.629l3.069.173c.253.015.5.034.749.053.6.048,1.2.091,1.815.091,8.5,0,11.074-4.516,12.308-11.239l2.348-11.614h-97.961c.758,7.779,4.065,12.441,14.416,12.441Z" transform="translate(1222.03 301.639)" fill="#1a5a99"/><path d="M-168.191-640.152c0,3.994-1.15,6.269-3.14,7.583-1.99,1.265-4.82,1.568-8.182,1.568-9.154,0-11.365-3.64-11.365-13.55,0-10.212,2.035-13.6,11.365-13.6,8.712,0,11.321,2.78,11.321,13.6v1.467h-15.08c0,4.651.619,6.016,3.759,6.016,2.344,0,3.848-.3,3.848-3.083Zm-7.606-7.736c0-3.944-1.283-4.2-3.847-4.2-2.7,0-3.538.708-3.627,4.2Z" transform="translate(1197.491 430.402)" fill="#fff"/><path d="M36.078-607.253h-.245c-.532,3.307-3.72,3.858-6.172,3.858-4.9,0-7.764-1.331-7.764-7.484,0-5.786,2.7-7.576,7.764-7.576,2,0,5.068-.046,5.845,2.709h.327v-3.811c0-2.25-.123-3.673-3.188-3.673-1.758,0-2.861.459-2.861,2.617h-7.03c0-7.484,4.863-7.438,9.89-7.438,7.193,0,10.217,1.011,10.217,9.321v15.06H35.833Zm-7.153-3.856c0,2.617,2,2.617,3.065,2.617,2.943,0,3.842-.413,3.842-2.939,0-2.02-1.554-2.2-3.842-2.2-1.716,0-3.065.319-3.065,2.523Z" transform="translate(1010.773 403.988)" fill="#fff"/><path d="M227.349-646.167a2.243,2.243,0,0,0-1.142-1.9,4.58,4.58,0,0,0-1.817-.244c-3.8,0-3.8.536-3.8,2.047,0,1.267.085,2.144,3.8,2.242,7.523.2,10.863.682,10.863,7.847,0,7.506-5.031,8.628-10.863,8.628-5.748,0-10.863.146-10.863-8.286H220.8c0,2.875,1.818,2.875,3.594,2.875,3.3,0,3.8-.244,3.8-2.242,0-2.535-1.268-2.535-3.8-2.535-9.214,0-10.863-2.388-10.863-7.6,0-8.238,4.691-8.384,10.863-8.384,4.058,0,9.806.049,9.806,6.336v1.219Z" transform="translate(842.609 426.515)" fill="#fff"/><path d="M418.915-610.706c-1.169,6.368-3.228,8.631-9.121,8.631-.807,0-1.574-.094-2.381-.14v-5.493a10.432,10.432,0,0,0,1.212.094c2.9,0,3.51-2.447,3.631-5.216h-3.793l-6.3-24.232h7.264l4.2,19.709h.081l3.431-19.709h7.1Z" transform="translate(677.069 411.896)" fill="#fff"/><path d="M-66.133-367.156H-68.6v-2.317h2.463Z" transform="translate(1090.184 177.075)" fill="#ffc106"/><path d="M-23.2-399.493c0,1.2-.259,1.86-.887,2.215a6.233,6.233,0,0,1-2.994.43c-3.1,0-3.835-.747-3.835-3.283,0-2.18.55-3.294,3.835-3.294,2.307,0,3.881.2,3.881,2.486h-2.628c.015-.343-.03-.551-.214-.686a1.819,1.819,0,0,0-1.039-.184c-.932,0-1.207.208-1.207,1.678,0,1.507.214,1.665,1.207,1.665,1.192,0,1.253-.233,1.253-1.028Z" transform="translate(1057.116 206.87)" fill="#ffc106"/><path d="M46.292-407.6c0,2.645-.689,3.283-4.026,3.283-3.291,0-4.011-.712-4.011-3.283,0-2.632.659-3.294,4.011-3.294S46.292-410.319,46.292-407.6Zm-5.4,0c0,1.4.152,1.665,1.423,1.665,1.225,0,1.348-.268,1.348-1.665s-.122-1.678-1.348-1.678c-1.275,0-1.427.278-1.427,1.678Z" transform="translate(996.418 213.425)" fill="#ffc106"/><path d="M117.382-403.158v.87h.107c.321-.73,1.3-.941,2.2-.941,1.133,0,2.3.153,2.435,1.212h.122c.138-.882,1.225-1.212,2.235-1.212,1.852,0,2.8.587,2.8,2.024v4.224h-2.633v-3.576c-.046-.648-.03-1.119-1.056-1.119s-1.224.53-1.224,1.189v3.506h-2.634v-3.742c-.03-.564-.076-.953-1-.953-1.087,0-1.285.447-1.285,1.189v3.506H114.82v-6.177Z" transform="translate(929.224 206.698)" fill="#ffc106"/><path d="M237.88-365.495h-2.464v-2.317h2.464Z" transform="translate(823.401 175.618)" fill="#ffc106"/><path d="M278.366-423.489v3.544h.121c.427-.8,1.263-.957,2.221-.957,2.19,0,3.026.756,3.026,2.646v1.418c0,1.643-1.1,2.28-3.026,2.28-1.141,0-1.977-.213-2.28-1.146H278.3l.061,1.075H275.75v-8.861Zm2.753,5.753c0-1.039-.091-1.607-1.308-1.607-1.08,0-1.444.2-1.444,1.607,0,1.2.061,1.618,1.444,1.618C280.92-416.117,281.119-416.424,281.119-417.736Z" transform="translate(788.006 224.477)" fill="#ffc106"/><path d="M357.077-421.283h-2.615l.061-1.053H354.4c-.3.915-1.141,1.123-2.281,1.123-1.931,0-3.026-.625-3.026-2.233v-1.39c0-1.851.836-2.591,3.026-2.591.958,0,1.794.15,2.221.938h.122v-3.472h2.615Zm-4.03-1.458c1.08,0,1.415-.2,1.415-1.574,0-1.18-.03-1.585-1.415-1.585-1.307,0-1.338.382-1.338,1.585C351.71-422.834,351.952-422.741,353.047-422.741Z" transform="translate(723.643 230.157)" fill="#ffc106"/></g></svg>