<svg xmlns="http://www.w3.org/2000/svg" width="164.8" height="71.9" viewBox="0 0 164.8 71.9"><g transform="translate(-1194.1 -190)"><path d="M1336.7,194.2,1335,204l-2.1-9.8h-20.6c-5-3.3-11.8-3.3-15.2-3.3-7.3,0-17.5,0-21.3,9.6-4.1-4-10.3-4.5-16.9-4.5h-.3c-5.5,0-14.7,0-18.8,7.5-2.7-9.7-9.4-13.5-22-13.5-19.8,0-23.7,10-23.7,27.3,0,16.8,4,27.2,23.7,27.2a44.041,44.041,0,0,0,10.8-1.1,8.44,8.44,0,0,0-2.2,3.9h-8v14.3h14.5v-.3a16.408,16.408,0,0,0,4.4.4c2.8,0,5.3-.1,7.4-1.4a4.439,4.439,0,0,0,1.1-.8,20.024,20.024,0,0,0,5.4.7c1.1,0,2.3-.1,3.4-.2v1.2h23.9v.7H1293v-.4h4.9a10.868,10.868,0,0,0,1.8.1,11.585,11.585,0,0,0,7.2-2.2,15.475,15.475,0,0,0,4.3.7,10.869,10.869,0,0,0,1.8-.1h7v1l5,.3c.4,0,.8.1,1.2.1a28.1,28.1,0,0,0,2.9.1c13.8,0,17.9-7.3,19.9-18.2l9.9-48.9Z" fill="#fff"/><path d="M1217.7,244.5a44.041,44.041,0,0,0,10.8-1.1,8.44,8.44,0,0,0-2.2,3.9h-8v14.3h14.5v-.3a16.408,16.408,0,0,0,4.4.4c2.8,0,5.3-.1,7.4-1.4a4.439,4.439,0,0,0,1.1-.8,20.024,20.024,0,0,0,5.4.7c1.1,0,2.3-.1,3.4-.2v1.2h23.9v.7h14.5v-.4h4.9a10.868,10.868,0,0,0,1.8.1,11.585,11.585,0,0,0,7.2-2.2,15.475,15.475,0,0,0,4.3.7,10.869,10.869,0,0,0,1.8-.1h7v1l5,.3c.4,0,.8.1,1.2.1a28.1,28.1,0,0,0,2.9.1c13.8,0,17.9-7.3,19.9-18.2l3.8-18.8H1194.2C1195.6,236.9,1201,244.5,1217.7,244.5Z" fill="#f2f2f2"/><path d="M1236.6,224.4c0,6.5-1.9,10.1-5.1,12.3-3.2,2-7.8,2.5-13.2,2.5-14.8,0-18.4-5.9-18.4-21.9,0-16.5,3.3-22,18.4-22,14.1,0,18.3,4.5,18.3,22v2.4h-24.4c0,7.5,1,9.7,6.1,9.7,3.8,0,6.2-.5,6.2-5Zm-12.3-12.5c0-6.4-2.1-6.8-6.2-6.8-4.4,0-5.7,1.1-5.9,6.8Z" fill="#176eff"/><path d="M1265,234.9h-.4c-.9,5.4-6,6.2-10,6.2-7.9,0-12.6-2.2-12.6-12.1,0-9.4,4.4-12.3,12.6-12.3,3.2,0,8.2-.1,9.5,4.4h.5V215c0-3.6-.2-5.9-5.2-5.9-2.8,0-4.6.7-4.6,4.2h-11.4c0-12.1,7.9-12,16-12,11.6,0,16.5,1.6,16.5,15.1v24.4h-11.4Zm-11.5-6.3c0,4.2,3.2,4.2,5,4.2,4.8,0,6.2-.7,6.2-4.8,0-3.3-2.5-3.6-6.2-3.6C1255.6,224.6,1253.5,225.1,1253.5,228.6Z" fill="#176eff"/><path d="M1302.4,208.4a3.654,3.654,0,0,0-1.8-3.1,7.045,7.045,0,0,0-2.9-.4c-6.2,0-6.2.9-6.2,3.3,0,2.1.1,3.5,6.2,3.6,12.2.3,17.6,1.1,17.6,12.7,0,12.1-8.1,14-17.6,14-9.3,0-17.6.2-17.6-13.4h11.8c0,4.7,2.9,4.7,5.8,4.7,5.3,0,6.2-.4,6.2-3.6,0-4.1-2.1-4.1-6.2-4.1-14.9,0-17.6-3.9-17.6-12.3,0-13.3,7.6-13.6,17.6-13.6,6.6,0,15.9.1,15.9,10.3v2Z" fill="#176eff"/><path d="M1344.5,242.1c-1.9,10.3-5.2,14-14.8,14-1.3,0-2.5-.2-3.9-.2V247c.7.1,1.3.1,2,.2,4.7,0,5.7-4,5.9-8.4h-6.1l-10.2-39.2h11.8l6.8,31.9h.1l5.6-31.9h11.5Z" fill="#176eff"/><g transform="translate(1224.151 240.478)"><path d="M4,15.7H0V12H4Z" fill="#ffc106"/><path d="M20,11.6c0,1.9-.4,3-1.4,3.6s-2.5.7-4.8.7c-5,0-6.2-1.2-6.2-5.3,0-3.5.9-5.3,6.2-5.3,3.7,0,6.3.3,6.3,4H15.8c0-.6,0-.9-.3-1.1a2.492,2.492,0,0,0-1.7-.3c-1.5,0-2,.3-2,2.7s.3,2.7,2,2.7c1.9,0,2-.4,2-1.7Z" fill="#ffc106"/><path d="M34.2,9.1c0,4.3-1.1,5.3-6.5,5.3-5.3,0-6.5-1.2-6.5-5.3,0-4.3,1.1-5.3,6.5-5.3S34.2,4.7,34.2,9.1Zm-8.8,0c0,2.3.2,2.7,2.3,2.7,2,0,2.2-.4,2.2-2.7s-.2-2.7-2.2-2.7S25.4,6.9,25.4,9.1Z" fill="#ffc106"/><path d="M40.5,5.4V6.8h.2c.5-1.2,2.1-1.5,3.6-1.5,1.8,0,3.7.2,3.9,2h.2c.2-1.4,2-2,3.6-2,3,0,4.5,1,4.5,3.3v6.8H52.2V9.6c-.1-1,0-1.8-1.7-1.8s-2,.9-2,1.9v5.7H44.2v-6c-.1-.9-.1-1.5-1.6-1.5-1.8,0-2.1.7-2.1,1.9v5.7H36.2V5.5h4.3Z" fill="#ffc106"/><path d="M64.2,16.1h-4V12.4h4Z" fill="#ffc106"/><path d="M72.5,1.3V7h.2c.7-1.3,2-1.5,3.6-1.5,3.5,0,4.9,1.2,4.9,4.3V12c0,2.7-1.8,3.7-4.9,3.7-1.8,0-3.2-.3-3.7-1.9h-.2l.1,1.7H68.3V1.3Zm4.4,9.3c0-1.7-.1-2.6-2.1-2.6-1.7,0-2.3.3-2.3,2.6,0,1.9.1,2.6,2.3,2.6,1.8,0,2.1-.5,2.1-2.6Z" fill="#ffc106"/><path d="M95.7,14H91.5l.1-1.7h-.2c-.5,1.5-1.8,1.8-3.7,1.8-3.1,0-4.9-1-4.9-3.6V8.3c0-3,1.4-4.2,4.9-4.2,1.6,0,2.9.2,3.6,1.5h.2V0h4.2Zm-6.5-2.3c1.7,0,2.3-.3,2.3-2.5,0-1.9,0-2.6-2.3-2.6C87,6.6,87,7.2,87,9.1,87,11.5,87.4,11.7,89.2,11.7Z" fill="#ffc106"/></g></g></svg>