<svg xmlns="http://www.w3.org/2000/svg" width="50" height="50" viewBox="0 0 50 50"><g transform="translate(-225.5 -600.5)"><rect width="50" height="50" rx="10" transform="translate(225.5 600.5)" fill="#d64937"/><g transform="translate(237.504 613.504)"><path d="M5.586,8.425,4.709,11.7,1.5,11.768A12.625,12.625,0,0,1,1.409,0L4.265.523l1.25,2.838a7.521,7.521,0,0,0,.071,5.064Z" transform="translate(0 6.807)" fill="#fff"/><path d="M12.1,0a12.616,12.616,0,0,1,.22,2.354,12.626,12.626,0,0,1-.276,2.631,12.6,12.6,0,0,1-4.437,7.2L4.016,12,3.507,8.821A7.511,7.511,0,0,0,6.739,4.986H0V0Z" transform="translate(12.88 10.248)" fill="#fff"/><path d="M18.99,7.2A12.549,12.549,0,0,1,11.1,9.973,12.6,12.6,0,0,1,0,3.343L4.084,0A7.493,7.493,0,0,0,11.1,4.862a7.451,7.451,0,0,0,3.784-1.025Z" transform="translate(1.502 15.232)" fill="#fff"/><path d="M19.238,2.9,15.155,6.244A7.494,7.494,0,0,0,4.106,10.168L0,6.807A12.6,12.6,0,0,1,19.238,2.9Z" transform="translate(1.409)" fill="#fff"/></g></g></svg>