<svg xmlns="http://www.w3.org/2000/svg" xmlns:xlink="http://www.w3.org/1999/xlink" width="198.749" height="209.969" viewBox="0 0 198.749 209.969"><defs><linearGradient id="a" x1="0.5" y1="1" x2="0.5" gradientUnits="objectBoundingBox"><stop offset="0" stop-color="#fff"/><stop offset="1" stop-color="#fff"/></linearGradient><clipPath id="b"><path d="M0,0H47.087V75.487H0Z" transform="translate(0 0.766)" fill="none"/></clipPath></defs><g transform="translate(0 -0.314)"><g transform="translate(2.618 167.975)"><path d="M196.013,20.9c0-11.541-43.88-20.9-98.006-20.9S0,9.359,0,20.9,43.879,41.8,98.007,41.8s98.006-9.359,98.006-20.9" transform="translate(0.118 0.509)" fill="url(#a)"/></g><path d="M0,0H183.8V175.653H0Z" transform="translate(3.18 0.315)" fill="none"/><path d="M91.9,170.569l-2.195-.464a85.732,85.732,0,0,1-42.631-22.871C34.81,135.319,24.892,119.311,17.6,99.657A208.772,208.772,0,0,1,5.559,43.9v.007l-.4-7.956L91.9,5.277l86.746,30.677-.4,7.956V43.9a208.687,208.687,0,0,1-12.037,55.753c-7.3,19.655-17.214,35.662-29.479,47.578A85.729,85.729,0,0,1,94.1,170.1l-2.2.465Z" transform="translate(3.18 0.314)" fill="#edeff2"/><path d="M91.9,165.484l1.174-.248c30.86-6.5,54.536-29.776,68.469-67.311a203.234,203.234,0,0,0,11.733-54.266l.214-4.251L91.9,10.554,10.311,39.408l.215,4.237A203.157,203.157,0,0,0,22.26,97.925c13.933,37.536,37.61,60.811,68.475,67.312l1.166.247m0,10.17-3.223-.681c-34.373-7.24-60.565-32.687-75.747-73.585A213.114,213.114,0,0,1,.59,44.16L0,32.5,91.9,0l91.9,32.5-.589,11.661a213.143,213.143,0,0,1-12.342,57.227c-15.18,40.9-41.373,66.345-75.746,73.585l-3.225.68Z" transform="translate(3.18 0.314)" fill="#fff"/><path d="M0,0H183.8V175.653H0Z" transform="translate(3.18 0.315)" fill="none"/><path d="M0,4.771,33.377,0H62.719L88.943,5.138,43.83,27.89Z" transform="translate(94.901 142.545)"/><path d="M68.9,23.976S9.854-8.5,2.886,2.142C-7.182,17.515,8.2,25.259,63.038,39.94Z" transform="translate(87.267 147.376)"/><path d="M22.676,14.7A6.924,6.924,0,0,0,18.93,5.65L5.3,0,0,12.8l13.636,5.648a6.918,6.918,0,0,0,9.04-3.748" transform="translate(149.772 172.886)" fill="#176eff"/><path d="M3.587,0,13.9,4.276a4.691,4.691,0,1,1-3.587,8.669L0,8.67Z" transform="translate(150.618 174.949)" fill="#ffc106"/><path d="M.893,0,14.529,5.648a6.906,6.906,0,0,0,8.487-2.714,6.87,6.87,0,0,1-.338,1.125,6.92,6.92,0,0,1-9.042,3.748L0,2.157Z" transform="translate(149.771 183.523)" fill="#0d56d0"/><path d="M.04,5.588,2.22.321a.521.521,0,1,1,.962.4L1,5.987a.524.524,0,0,1-.681.283A.524.524,0,0,1,.04,5.588" transform="translate(155.139 178.149)" fill="#e6e6e6"/><path d="M.039,5.589,2.219.321a.521.521,0,1,1,.962.4L1,5.988a.521.521,0,1,1-.962-.4" transform="translate(158.349 179.479)" fill="#e6e6e6"/><path d="M.04,5.588,2.219.321a.521.521,0,1,1,.962.4L1,5.987a.521.521,0,1,1-.962-.4" transform="translate(161.879 180.942)" fill="#e6e6e6"/><path d="M76.77,31.729c-.907-3.12-5.428-8.407-9.445-19.245C63.148,1.213,45.347,0,45.347,0L38.438,3.7,31.527,0S13.728,1.213,9.55,12.484C5.532,23.322,1.014,28.609.1,31.729S4.1,55.05,18.171,57.91H58.7c14.077-2.861,18.98-23.06,18.073-26.181" transform="translate(100.796 95.731)" fill="#176eff"/><path d="M14.55,0V5.54s-1.279,6.187-7.3,7.216A9.4,9.4,0,0,1,0,5.54V0Z" transform="translate(132.365 95.805)" fill="#efb1af"/><path d="M.427,19.318S-1.632,6.372,3.291,4.8c1.341-.43.36-4.7,7.854-4.756C21.374-.03,29.435-1.406,28.093,19.5Z" transform="translate(125.374 65.605)"/><path d="M7.069,3.537A3.534,3.534,0,1,0,3.535,7.074,3.534,3.534,0,0,0,7.069,3.537" transform="translate(125.216 82.816)" fill="#ffc5c2"/><path d="M7.069,3.537A3.534,3.534,0,1,0,3.534,7.074,3.534,3.534,0,0,0,7.069,3.537" transform="translate(146.748 82.816)" fill="#ffc5c2"/><path d="M23.188,4.7l-.02-.007h-.007A5.573,5.573,0,0,1,19.658,0L18.111.435A23.635,23.635,0,0,1,5.02.31L3.786,0A5.616,5.616,0,0,1,.127,4.695H.1L0,10.426A19.153,19.153,0,0,0,3.659,20.933a9.845,9.845,0,0,0,15.855,0,19.164,19.164,0,0,0,3.659-10.507l0-5.706Z" transform="translate(128.207 75.659)" fill="#ffc5c2"/><path d="M41,0H3.752A3.753,3.753,0,0,0,0,3.754V26.092a3.753,3.753,0,0,0,3.752,3.754H41a3.753,3.753,0,0,0,3.751-3.754V3.754A3.753,3.753,0,0,0,41,0" transform="translate(117.219 127.806)" fill="#fff"/><path d="M9.292,4.648A4.646,4.646,0,1,0,4.647,9.3,4.646,4.646,0,0,0,9.292,4.648" transform="translate(134.808 137.775)" fill="#dcdee2"/><path d="M0,23.976S59.051-8.5,66.02,2.142C76.087,17.515,60.7,25.259,5.867,39.94Z" transform="translate(121.126 147.376)"/><path d="M.528,14.7A6.924,6.924,0,0,1,4.274,5.65L17.91,0,23.2,12.8,9.569,18.444A6.918,6.918,0,0,1,.528,14.7" transform="translate(104.322 172.886)" fill="#176eff"/><path d="M16.807,8.67,6.49,12.945A4.691,4.691,0,1,1,2.9,4.276L13.22,0Z" transform="translate(109.873 174.949)" fill="#ffc106"/><path d="M22.122,0,8.487,5.648A6.906,6.906,0,0,1,0,2.934,6.87,6.87,0,0,0,.338,4.059,6.92,6.92,0,0,0,9.379,7.807l13.636-5.65Z" transform="translate(104.512 183.523)" fill="#0d56d0"/><path d="M3.182,5.588,1,.321a.521.521,0,1,0-.96.4L2.22,5.987a.521.521,0,1,0,.962-.4" transform="translate(118.938 178.149)" fill="#e6e6e6"/><path d="M3.182,5.589,1,.321a.521.521,0,1,0-.96.4L2.22,5.988a.521.521,0,1,0,.962-.4" transform="translate(115.729 179.479)" fill="#e6e6e6"/><path d="M3.182,5.588,1,.321a.521.521,0,1,0-.96.4L2.22,5.987a.521.521,0,1,0,.962-.4" transform="translate(112.198 180.942)" fill="#e6e6e6"/><path d="M11.732,70.125S-3.911,45.137.929,41.516,10.518,52.6,13,50.245,4.366,26.874,9.61,22.353,14.463,33.18,18.917,36.03s-2.41-20.91,2.92-24.623,7.9,8.107,7.9,8.107S35.644-4.013,43.591.6,31.407,28.9,36.134,28.09s9.582-8.808,13.683-3.42-22.754,19.1-18.448,18.751,11.931-5.694,13.255-.933-21.79,13.349-19.4,15S39.706,49.8,41.61,56.67,16.532,74.5,11.732,70.125" transform="translate(19.292 77.604)" fill="#238e69"/><path d="M0,70.922A81.735,81.735,0,0,0,7.236,55.211c.988-2.916,1.834-5.934,2.653-8.851.373-1.331.745-2.659,1.131-3.983A193.013,193.013,0,0,1,29.124,0l.3.177a192.6,192.6,0,0,0-18.07,42.3c-.386,1.323-.759,2.651-1.131,3.98C9.41,49.376,8.562,52.4,7.57,55.325A82.169,82.169,0,0,1,.3,71.1Z" transform="translate(29.125 86.563)" fill="#d2ebff"/><path d="M3.605,16.868a.189.189,0,0,1-.068-.09A80.127,80.127,0,0,1,0,.194.177.177,0,1,1,.352.158a79.664,79.664,0,0,0,3.52,16.509.176.176,0,0,1-.267.2" transform="translate(42.587 94.38)" fill="#d2ebff"/><path d="M.076,11.8a.159.159,0,0,1-.042-.042.176.176,0,0,1,.038-.246A139.213,139.213,0,0,1,15.312,1.37,13.373,13.373,0,0,1,18.512,0,.177.177,0,1,1,18.6.347a13.019,13.019,0,0,0-3.116,1.332A138.766,138.766,0,0,0,.28,11.793a.179.179,0,0,1-.2,0" transform="translate(43.917 105.942)" fill="#d2ebff"/><path d="M9.68,21.266a.185.185,0,0,1-.047-.048,71.31,71.31,0,0,1-6.5-11.641A90.566,90.566,0,0,1,.007.226.177.177,0,0,1,.126.007a.175.175,0,0,1,.219.12A90.368,90.368,0,0,0,3.461,9.44,71.1,71.1,0,0,0,9.926,21.022a.176.176,0,0,1-.246.244" transform="translate(30.81 107.121)" fill="#d2ebff"/><path d="M.077,5.533a.176.176,0,0,1,.16-.31,3.019,3.019,0,0,0,1.58.01A26.7,26.7,0,0,0,6,3.933l.757-.28c4-1.459,8.167-2.573,12.2-3.651a.179.179,0,0,1,.216.126.176.176,0,0,1-.124.216C15.017,1.418,10.853,2.53,6.872,3.984l-.754.279A26.908,26.908,0,0,1,1.883,5.579,3.371,3.371,0,0,1,.116,5.554a.187.187,0,0,1-.039-.021" transform="translate(40.361 123.014)" fill="#d2ebff"/><path d="M13.221,18.584C8.546,15.367,3.185,6.7.018.253A.174.174,0,0,1,.1.019.174.174,0,0,1,.334.1C3.484,6.506,8.8,15.116,13.42,18.294a.177.177,0,1,1-.2.291" transform="translate(22.935 124.011)" fill="#d2ebff"/><path d="M.187,4.946a1.165,1.165,0,0,1-.123-.093A.175.175,0,0,1,.04,4.605.179.179,0,0,1,.287,4.58a2.966,2.966,0,0,0,2.628.1L19.979.006A.175.175,0,0,1,20.2.13a.174.174,0,0,1-.123.216L3.009,5.022A3.408,3.408,0,0,1,.187,4.946" transform="translate(36.271 137.784)" fill="#d2ebff"/><g transform="translate(0 71.041)"><path d="M0,0H47.087V75.487H0Z" transform="translate(0 0.766)" fill="none"/><g clip-path="url(#b)"><path d="M28.947,75.463S1.87,63.726,3.81,57.99s14.2,3.707,14.906.354S-1.659,43.96.1,37.253s10.144,6.176,15.436,6S1.693,27.368,3.987,21.28,15.1,23.486,15.1,23.486,6.633.718,15.805.012s6,30.268,9.437,26.915,2.912-12.708,9.351-10.589-7.938,28.681-4.588,25.944,6.616-11.471,10.408-8.294-10.408,23.385-7.5,23.385S40.5,42.812,45.97,47.4,35.386,76.346,28.947,75.463" transform="translate(0 0.766)" fill="#2bad67"/></g></g><path d="M16.19,75.078a81.8,81.8,0,0,0-2.939-17.071c-.838-2.968-1.851-5.938-2.832-8.811-.446-1.307-.893-2.616-1.325-3.928A193.3,193.3,0,0,1,0,.028L.351,0A193.031,193.031,0,0,0,9.429,45.158c.432,1.311.877,2.619,1.324,3.925.982,2.878,2,5.853,2.837,8.829a82.146,82.146,0,0,1,2.952,17.144Z" transform="translate(16.723 81.321)" fill="#d2ebff"/><path d="M12.471,12a.177.177,0,0,1-.107-.037A80.03,80.03,0,0,1,.043.291.175.175,0,0,1,.062.042a.177.177,0,0,1,.249.02A79.7,79.7,0,0,0,12.579,11.684a.177.177,0,0,1,.033.248.173.173,0,0,1-.14.069" transform="translate(8.302 96.558)" fill="#d2ebff"/><path d="M.177,20.253a.156.156,0,0,1-.059-.01.175.175,0,0,1-.107-.224A139.4,139.4,0,0,1,6.834,3,13.455,13.455,0,0,1,8.7.058a.176.176,0,1,1,.262.236A13.126,13.126,0,0,0,7.15,3.162,139.151,139.151,0,0,0,.343,20.136a.178.178,0,0,1-.166.118" transform="translate(22.463 94.909)" fill="#d2ebff"/><path d="M19.978,12.182a.187.187,0,0,1-.065-.012A71.4,71.4,0,0,1,7.949,6.252,90.463,90.463,0,0,1,.066.313.176.176,0,1,1,.287.039,90.3,90.3,0,0,0,8.14,5.955a71.072,71.072,0,0,0,11.9,5.887.177.177,0,0,1-.065.341" transform="translate(5.81 113.756)" fill="#d2ebff"/><path d="M.176,15.338a.177.177,0,0,1-.045-.347,3.014,3.014,0,0,0,1.31-.891,26.662,26.662,0,0,0,2.713-3.44q.231-.33.466-.66C7.089,6.527,9.9,3.241,12.62.062a.176.176,0,1,1,.268.229C10.172,3.465,7.366,6.745,4.906,10.2l-.465.659A26.679,26.679,0,0,1,1.692,14.35a3.379,3.379,0,0,1-1.472.982.179.179,0,0,1-.045.005" transform="translate(25.66 110.762)" fill="#d2ebff"/><path d="M21.379,7.959C15.7,7.959,6.359,3.849.09.33A.177.177,0,1,1,.263.023c6.232,3.5,15.5,7.583,21.115,7.583a.177.177,0,0,1,0,.354" transform="translate(8.891 132.163)" fill="#d2ebff"/><path d="M.315,15.375a1.134,1.134,0,0,1-.153-.007.177.177,0,0,1,.029-.352c.85.067,1.572-.634,2.226-1.408L13.843.063a.177.177,0,1,1,.271.228L2.686,13.835a3.41,3.41,0,0,1-2.371,1.54" transform="translate(30.281 124.687)" fill="#d2ebff"/><path d="M0,0,4.324,26.773a7.834,7.834,0,0,0,7.732,6.588H25.232a7.834,7.834,0,0,0,7.732-6.588L37.289,0Z" transform="translate(16.962 151.451)" fill="#63666a"/><path d="M37.289,0H0L.6,3.71H29.345L25.621,26.773a7.833,7.833,0,0,1-7.732,6.588h7.344a7.833,7.833,0,0,0,7.732-6.587L36.689,3.71Z" transform="translate(16.962 151.451)" fill="#505357"/><path d="M42.016,0H3.9a3.9,3.9,0,1,0,0,7.8H42.02a3.9,3.9,0,1,0,0-7.8" transform="translate(12.65 143.749)" fill="#63666a"/><path d="M3.953,0A3.965,3.965,0,0,0,0,3.956V22.21a3.965,3.965,0,0,0,3.953,3.955H78l6.664,6.34V3.956A3.968,3.968,0,0,0,80.71,0Z" transform="translate(71.636 26.706)" fill="#ffc106"/><g transform="translate(78.607 31.849)"><path d="M-3013.658,21616h-9.038a1.4,1.4,0,0,1-1.41-1.385v-6.086a1.4,1.4,0,0,1,1.41-1.379h9.038a1.4,1.4,0,0,1,1.41,1.379v6.086A1.4,1.4,0,0,1-3013.658,21616Zm-4.519-6.826a1.245,1.245,0,0,0-1.253,1.232,1.23,1.23,0,0,0,.635,1.063l-.429,2.42h2.094l-.429-2.42a1.23,1.23,0,0,0,.635-1.062,1.245,1.245,0,0,0-1.252-1.23Z" transform="translate(3024.107 -21600.377)" fill="#fff" stroke="rgba(255,255,255,0)" stroke-miterlimit="10" stroke-width="1"/><path d="M8.2,5.772H7.086V4.031A2.962,2.962,0,0,0,4.1,1.1,2.961,2.961,0,0,0,1.119,4.031V5.772H0V4.031A4.071,4.071,0,0,1,4.1,0,4.071,4.071,0,0,1,8.2,4.031Z" transform="translate(1.828)" fill="#fff" stroke="rgba(255,255,255,0)" stroke-width="1"/></g><path d="M4.787,2.4a2.393,2.393,0,1,1-.7-1.7,2.393,2.393,0,0,1,.7,1.7" transform="translate(100.498 37.821)" fill="#fff"/><path d="M4.788,2.4a2.394,2.394,0,1,1-.7-1.7,2.394,2.394,0,0,1,.7,1.7" transform="translate(109.634 37.821)" fill="#fff"/><path d="M4.788,2.4A2.393,2.393,0,1,1,4.09.7a2.394,2.394,0,0,1,.7,1.7" transform="translate(118.771 37.821)" fill="#fff"/><path d="M4.788,2.4A2.393,2.393,0,1,1,4.09.7a2.394,2.394,0,0,1,.7,1.7" transform="translate(127.907 37.821)" fill="#fff"/><path d="M4.787,2.4a2.393,2.393,0,1,1-.7-1.7,2.393,2.393,0,0,1,.7,1.7" transform="translate(137.045 37.821)" fill="#fff"/></g></svg>